<svg width="42" height="42" viewBox="0 0 42 42" fill="none" xmlns="http://www.w3.org/2000/svg">
<rect width="42" height="42" rx="21" fill="#1F78FC"/>
<path fill-rule="evenodd" clip-rule="evenodd" d="M21 12.3337C16.2135 12.3337 12.3333 16.2139 12.3333 21.0003C12.3333 25.7868 16.2135 29.667 21 29.667C25.7865 29.667 29.6667 25.7868 29.6667 21.0003C29.6667 16.2139 25.7865 12.3337 21 12.3337ZM10.1667 21.0003C10.1667 15.0172 15.0169 10.167 21 10.167C26.9831 10.167 31.8333 15.0172 31.8333 21.0003C31.8333 26.9834 26.9831 31.8337 21 31.8337C15.0169 31.8337 10.1667 26.9834 10.1667 21.0003Z" fill="white"/>
<path fill-rule="evenodd" clip-rule="evenodd" d="M30.75 22.0837H11.25V19.917H30.75V22.0837Z" fill="white"/>
<path fill-rule="evenodd" clip-rule="evenodd" d="M20.2336 29.9847C20.2338 29.9845 20.234 29.9843 21 30.7503C21.766 31.5164 21.7663 31.5161 21.7666 31.5158L21.7687 31.5137L21.773 31.5094L21.7861 31.4961C21.7969 31.4851 21.8116 31.4699 21.8302 31.4506C21.8672 31.412 21.9193 31.3569 21.9842 31.2862C22.1141 31.1448 22.2956 30.9404 22.5117 30.6793C22.943 30.1581 23.5159 29.4061 24.0893 28.4743C25.2266 26.6263 26.4167 23.9883 26.4167 21.0003C26.4167 18.0123 25.2266 15.3744 24.0893 13.5263C23.5159 12.5946 22.943 11.8425 22.5117 11.3213C22.2956 11.0603 22.1141 10.8559 21.9842 10.7145C21.9193 10.6437 21.8672 10.5887 21.8302 10.5501C21.8116 10.5308 21.7969 10.5156 21.7861 10.5046L21.773 10.4912L21.7687 10.487L21.7672 10.4854C21.7669 10.4852 21.766 10.4843 21 11.2503C20.234 12.0164 20.2338 12.0161 20.2336 12.0159L20.2388 12.0213L20.2672 12.0506C20.2936 12.0781 20.3346 12.1214 20.3882 12.1797C20.4953 12.2965 20.6523 12.4729 20.8425 12.7027C21.2237 13.1633 21.7341 13.8331 22.244 14.6618C23.2734 16.3346 24.25 18.5717 24.25 21.0003C24.25 23.429 23.2734 25.666 22.244 27.3388C21.7341 28.1675 21.2237 28.8373 20.8425 29.2979C20.6523 29.5277 20.4953 29.7042 20.3882 29.8209C20.3346 29.8793 20.2936 29.9226 20.2672 29.9501L20.2388 29.9794L20.2336 29.9847Z" fill="white"/>
<path fill-rule="evenodd" clip-rule="evenodd" d="M21.7665 29.9847C21.7663 29.9845 21.766 29.9843 21 30.7503C20.234 31.5164 20.2337 31.5161 20.2335 31.5158L20.2313 31.5137L20.2271 31.5094L20.2139 31.4961C20.2032 31.4851 20.1884 31.4699 20.1698 31.4506C20.1328 31.412 20.0807 31.3569 20.0158 31.2862C19.886 31.1448 19.7044 30.9404 19.4883 30.6793C19.057 30.1581 18.4841 29.4061 17.9107 28.4743C16.7734 26.6263 15.5833 23.9883 15.5833 21.0003C15.5833 18.0123 16.7734 15.3744 17.9107 13.5263C18.4841 12.5946 19.057 11.8425 19.4883 11.3213C19.7044 11.0603 19.886 10.8559 20.0158 10.7145C20.0807 10.6437 20.1328 10.5887 20.1698 10.5501C20.1884 10.5308 20.2032 10.5156 20.2139 10.5046L20.2271 10.4912L20.2313 10.487L20.2328 10.4854C20.2331 10.4852 20.234 10.4843 21 11.2503C21.766 12.0164 21.7663 12.0161 21.7665 12.0159L21.7612 12.0213L21.7328 12.0506C21.7064 12.0781 21.6654 12.1214 21.6118 12.1797C21.5047 12.2965 21.3477 12.4729 21.1575 12.7027C20.7763 13.1633 20.2659 13.8331 19.756 14.6618C18.7266 16.3346 17.75 18.5717 17.75 21.0003C17.75 23.429 18.7266 25.666 19.756 27.3388C20.2659 28.1675 20.7763 28.8373 21.1575 29.2979C21.3477 29.5277 21.5047 29.7042 21.6118 29.8209C21.6654 29.8793 21.7064 29.9226 21.7328 29.9501L21.7612 29.9794L21.7665 29.9847Z" fill="white"/>
</svg>
