<svg width="34" height="34" viewBox="0 0 34 34" fill="none" xmlns="http://www.w3.org/2000/svg">
<circle cx="17" cy="17" r="17" fill="#AFCB00" fill-opacity="0.1"/>
<path d="M22.9834 24.4815H21.485V22.9832C21.485 22.3871 21.2482 21.8155 20.8268 21.394C20.4053 20.9725 19.8336 20.7357 19.2375 20.7357H14.7425C14.1465 20.7357 13.5748 20.9725 13.1533 21.394C12.7318 21.8155 12.495 22.3871 12.495 22.9832V24.4815H10.9967V22.9832C10.9967 21.9897 11.3914 21.037 12.0938 20.3345C12.7963 19.632 13.7491 19.2374 14.7425 19.2374H19.2375C20.231 19.2374 21.1838 19.632 21.8862 20.3345C22.5887 21.037 22.9834 21.9897 22.9834 22.9832V24.4815ZM16.99 17.739C16.3997 17.739 15.8152 17.6228 15.2699 17.3969C14.7245 17.171 14.229 16.8399 13.8116 16.4225C13.3942 16.0051 13.0631 15.5095 12.8372 14.9642C12.6113 14.4188 12.495 13.8343 12.495 13.244C12.495 12.6537 12.6113 12.0692 12.8372 11.5239C13.0631 10.9785 13.3942 10.483 13.8116 10.0656C14.229 9.64818 14.7245 9.31708 15.2699 9.09118C15.8152 8.86529 16.3997 8.74902 16.99 8.74902C18.1822 8.74902 19.3255 9.2226 20.1685 10.0656C21.0115 10.9086 21.485 12.0519 21.485 13.244C21.485 14.4362 21.0115 15.5795 20.1685 16.4225C19.3255 17.2654 18.1822 17.739 16.99 17.739ZM16.99 16.2407C17.7848 16.2407 18.547 15.925 19.109 15.363C19.671 14.801 19.9867 14.0388 19.9867 13.244C19.9867 12.4493 19.671 11.687 19.109 11.1251C18.547 10.5631 17.7848 10.2474 16.99 10.2474C16.1953 10.2474 15.4331 10.5631 14.8711 11.1251C14.3091 11.687 13.9934 12.4493 13.9934 13.244C13.9934 14.0388 14.3091 14.801 14.8711 15.363C15.4331 15.925 16.1953 16.2407 16.99 16.2407Z" fill="#AFCB00"/>
<path fill-rule="evenodd" clip-rule="evenodd" d="M34 17C34 26.3888 26.3888 34 17 34C7.61116 34 0 26.3888 0 17C0 7.61116 7.61116 0 17 0C26.3888 0 34 7.61116 34 17ZM17 32.5288C25.5763 32.5288 32.5288 25.5763 32.5288 17C32.5288 8.42365 25.5763 1.47115 17 1.47115C8.42365 1.47115 1.47115 8.42365 1.47115 17C1.47115 25.5763 8.42365 32.5288 17 32.5288Z" fill="#AFCB00"/>
</svg>
