<svg width="34" height="34" viewBox="0 0 34 34" fill="none" xmlns="http://www.w3.org/2000/svg">
<circle cx="17" cy="17" r="17" fill="#AFCB00" fill-opacity="0.1"/>
<path d="M10.5022 20.7359C10.1855 20.1882 9.93934 19.6028 9.76953 18.9933C10.1391 18.8054 10.4495 18.5188 10.6663 18.1654C10.8831 17.812 10.998 17.4055 10.9981 16.9909C10.9983 16.5763 10.8838 16.1697 10.6672 15.8161C10.4506 15.4626 10.1405 15.1758 9.77103 14.9875C10.1097 13.763 10.7545 12.6449 11.6447 11.7384C11.9924 11.9645 12.3958 12.0899 12.8104 12.1008C13.2249 12.1118 13.6344 12.0078 13.9936 11.8005C14.3527 11.5931 14.6475 11.2904 14.8452 10.9259C15.043 10.5614 15.136 10.1493 15.1141 9.73514C16.3443 9.41721 17.6352 9.41772 18.8652 9.73664C18.8434 10.1507 18.9366 10.5628 19.1345 10.9272C19.3325 11.2916 19.6273 11.5942 19.9865 11.8014C20.3457 12.0086 20.7553 12.1124 21.1698 12.1013C21.5843 12.0902 21.9877 11.9646 22.3353 11.7384C22.7691 12.1804 23.1541 12.6831 23.4778 13.2442C23.8022 13.8054 24.0449 14.3905 24.2105 14.9868C23.8409 15.1748 23.5305 15.4613 23.3137 15.8147C23.0969 16.1681 22.982 16.5746 22.9819 16.9892C22.9817 17.4039 23.0962 17.8104 23.3128 18.164C23.5294 18.5176 23.8395 18.8043 24.209 18.9926C23.8703 20.2171 23.2255 21.3353 22.3353 22.2417C21.9876 22.0157 21.5842 21.8902 21.1696 21.8793C20.7551 21.8683 20.3456 21.9723 19.9864 22.1797C19.6273 22.387 19.3325 22.6897 19.1348 23.0542C18.937 23.4188 18.844 23.8309 18.8659 24.245C17.6357 24.5629 16.3448 24.5624 15.1148 24.2435C15.1366 23.8294 15.0434 23.4173 14.8455 23.0529C14.6475 22.6885 14.3527 22.386 13.9935 22.1788C13.6343 21.9715 13.2247 21.8678 12.8102 21.8789C12.3957 21.89 11.9923 22.0156 11.6447 22.2417C11.2019 21.7899 10.8181 21.284 10.5022 20.7359ZM14.7425 20.8827C15.5408 21.3432 16.1411 22.0822 16.4281 22.9579C16.802 22.9931 17.1773 22.9939 17.5511 22.9587C17.8384 22.0828 18.4389 21.3438 19.2375 20.8835C20.0355 20.4218 20.976 20.271 21.8783 20.4602C22.0956 20.1545 22.2829 19.8287 22.4387 19.4878C21.8239 18.8011 21.4843 17.9117 21.485 16.9901C21.485 16.0461 21.8371 15.1643 22.4387 14.4923C22.2818 14.1516 22.0937 13.8261 21.8768 13.5199C20.975 13.7089 20.0352 13.5585 19.2375 13.0974C18.4392 12.6369 17.8389 11.898 17.5519 11.0222C17.178 10.987 16.8027 10.9862 16.4289 11.0215C16.1416 11.8973 15.5411 12.6363 14.7425 13.0966C13.9445 13.5584 13.004 13.7091 12.1017 13.5199C11.8849 13.8258 11.6972 14.1514 11.5413 14.4923C12.1561 15.179 12.4957 16.0684 12.495 16.9901C12.495 17.934 12.1429 18.8158 11.5413 19.4878C11.6982 19.8285 11.8863 20.1541 12.1032 20.4602C13.005 20.2712 13.9448 20.4216 14.7425 20.8827ZM16.99 19.2376C16.3939 19.2376 15.8223 19.0008 15.4008 18.5793C14.9793 18.1578 14.7425 17.5861 14.7425 16.9901C14.7425 16.394 14.9793 15.8223 15.4008 15.4008C15.8223 14.9794 16.3939 14.7426 16.99 14.7426C17.5861 14.7426 18.1577 14.9794 18.5792 15.4008C19.0007 15.8223 19.2375 16.394 19.2375 16.9901C19.2375 17.5861 19.0007 18.1578 18.5792 18.5793C18.1577 19.0008 17.5861 19.2376 16.99 19.2376ZM16.99 17.7392C17.1887 17.7392 17.3792 17.6603 17.5197 17.5198C17.6602 17.3793 17.7392 17.1888 17.7392 16.9901C17.7392 16.7914 17.6602 16.6008 17.5197 16.4603C17.3792 16.3198 17.1887 16.2409 16.99 16.2409C16.7913 16.2409 16.6008 16.3198 16.4603 16.4603C16.3198 16.6008 16.2408 16.7914 16.2408 16.9901C16.2408 17.1888 16.3198 17.3793 16.4603 17.5198C16.6008 17.6603 16.7913 17.7392 16.99 17.7392Z" fill="#AFCB00"/>
<path fill-rule="evenodd" clip-rule="evenodd" d="M34 17C34 26.3888 26.3888 34 17 34C7.61116 34 0 26.3888 0 17C0 7.61116 7.61116 0 17 0C26.3888 0 34 7.61116 34 17ZM17 32.5288C25.5763 32.5288 32.5288 25.5763 32.5288 17C32.5288 8.42365 25.5763 1.47115 17 1.47115C8.42365 1.47115 1.47115 8.42365 1.47115 17C1.47115 25.5763 8.42365 32.5288 17 32.5288Z" fill="#AFCB00"/>
</svg>
